<svg xmlns="http://www.w3.org/2000/svg" viewBox="76 34 192 66">
  <defs>
    <style>
      .st1 { fill: #1c3d5a; }
      .st2 { fill: #214057; }
    </style>
  </defs>
  <path class="st1" d="M95.8,84.9v-28.6h11.6c1.6,0,3,.4,4.2,1.2,1.3.8,2.3,1.8,3,3.2.8,1.3,1.1,2.8,1.1,4.4s-.4,3.1-1.1,4.4c-.8,1.3-1.8,2.4-3,3.2-1.3.8-2.7,1.2-4.2,1.2h-7.2v10.9h-4.4ZM100.2,69.8h7.1c.7,0,1.4-.2,2-.6.6-.4,1.1-1,1.4-1.7.4-.7.6-1.5.6-2.3,0-1.3-.4-2.3-1.2-3.2-.8-.9-1.7-1.3-2.8-1.3h-7.1v9.1Z"/>
  <path class="st1" d="M123.4,84.9v-28.6h4.4v12.2h14.2v-12.2h4.4v28.6h-4.4v-12.1h-14.2v12.1h-4.4Z"/>
  <path class="st1" d="M181.1,64.8c-.7-1.8-1.7-3.3-2.9-4.7-1.3-1.3-2.8-2.4-4.4-3.1-1.7-.7-3.6-1.1-5.6-1.1s-3.9.4-5.6,1.1c-1.7.7-3.2,1.8-4.4,3.1-1.3,1.3-2.2,2.9-2.9,4.6-.7,1.8-1,3.7-1,5.9s.4,4.1,1,5.9c.2.6.5,1.1.8,1.6.6,1.1,1.3,2.1,2.2,3,.9,1,2,1.8,3.2,2.4h13.8c1.1-.7,2.1-1.5,3-2.5.9-.9,1.6-1.9,2.2-3.1.3-.5.5-1,.7-1.6.7-1.8,1-3.7,1-5.8s-.4-4-1-5.8ZM176.4,76c-.8,1.6-1.9,2.8-3.4,3.7-1.4.9-3.1,1.3-4.9,1.3s-3.5-.4-4.9-1.3c-1.4-.9-2.6-2.1-3.4-3.7-.8-1.6-1.2-3.4-1.2-5.4s.4-3.8,1.2-5.4c.8-1.6,1.9-2.8,3.4-3.7,1.4-.9,3.1-1.3,4.9-1.3s3.5.5,4.9,1.3c1.4.9,2.6,2.1,3.4,3.7.8,1.6,1.2,3.4,1.2,5.4s-.4,3.8-1.2,5.3Z"/>
  <path class="st1" d="M209.4,80.3l-4-6.8c1.6-.7,2.9-1.8,4-3.2,1-1.5,1.6-3.1,1.6-4.8s-.4-3.3-1.2-4.6c-.8-1.4-1.9-2.5-3.3-3.3-1.4-.8-2.9-1.2-4.5-1.2h-12.2v27.5l4.4.2v-9.9h6.5l3.1,5.5,3,5.3h5.4s-2.7-4.6-2.7-4.6ZM202.4,70h-8.2v-9.3h7c1.5,0,2.8.5,3.8,1.3s1.5,2.1,1.5,3.5-.4,2.3-1.2,3.2c-.8.9-1.8,1.3-3,1.3Z"/>
  <path class="st1" d="M231.4,85.4c-2,0-3.9-.4-5.6-1.1-1.7-.7-3.2-1.8-4.4-3.1-1.3-1.3-2.2-2.9-2.9-4.7-.7-1.8-1-3.7-1-5.9s.3-4.1,1-5.9c.7-1.8,1.7-3.3,2.9-4.7,1.3-1.3,2.7-2.3,4.4-3.1,1.7-.7,3.6-1.1,5.6-1.1s3.9.4,5.6,1.1c1.7.7,3.2,1.8,4.4,3.1,1.3,1.3,2.2,2.9,2.9,4.7.7,1.8,1,3.7,1,5.8s-.3,4-1,5.8c-.7,1.8-1.7,3.3-2.9,4.7-1.3,1.3-2.7,2.4-4.4,3.1-1.7.7-3.6,1.1-5.6,1.1ZM231.4,81.1c1.8,0,3.5-.4,4.9-1.3,1.4-.9,2.6-2.1,3.4-3.7.8-1.6,1.2-3.4,1.2-5.3s-.4-3.8-1.2-5.3c-.8-1.6-1.9-2.8-3.4-3.7-1.4-.9-3.1-1.3-4.9-1.3s-3.5.4-4.9,1.3c-1.4.9-2.6,2.1-3.4,3.7s-1.2,3.4-1.2,5.4.4,3.8,1.2,5.4c.8,1.6,1.9,2.8,3.4,3.7,1.4.9,3.1,1.3,4.9,1.3Z"/>
  <path class="st2" d="M159.1,83.6c-25.3.6-50.6,3.2-75.1,9.5-.3,0-.4.1-.6.2-.4.1-1,.4-1.4.4s-.3-.1-.2-.3c.2-.2,1.4-.4,1.6-.6,11.6-5.6,23.3-8.7,36-10.9,19-3.4,39-4.4,58.4-3.9,18.1.4,36.4,2.2,54,6.5s17.2,4.5,24.4,8.6.7.3.9.5c-.2,0-.4,0-.7,0-1.2-.2-2.8-.8-4.1-1.2-29.6-7.3-61.9-9.4-92.6-8.7-.3,0-.5,0-.8,0Z"/>
  <rect class="st1" x="229.2" y="40.2" width="4.5" height="12.1" rx="2.3" ry="2.3"/>
  <rect class="st1" x="246.4" y="47.4" width="4.5" height="12.1" rx="2.3" ry="2.3" transform="translate(110.7 -160.2) rotate(45)"/>
  <rect class="st1" x="253.5" y="64.8" width="4.5" height="12.1" rx="2.3" ry="2.3" transform="translate(326.6 -184.9) rotate(90)"/>
</svg>
