<?xml version="1.0" encoding="UTF-8"?><svg id="Ebene_1" xmlns="http://www.w3.org/2000/svg" viewBox="0 0 44.367 45.168"><defs><style>.cls-1{fill:#1c3d5a;}</style></defs><path class="cls-1" d="M14,45.168c-2.014,0-3.871-.367-5.571-1.102-1.701-.734-3.184-1.761-4.449-3.082-1.266-1.319-2.245-2.87-2.939-4.653-.694-1.782-1.041-3.734-1.041-5.856s.347-4.075,1.041-5.857c.694-1.782,1.673-3.333,2.939-4.653,1.265-1.32,2.748-2.348,4.449-3.082,1.7-.735,3.557-1.102,5.571-1.102s3.87.367,5.571,1.102c1.7.734,3.183,1.769,4.449,3.102,1.265,1.333,2.245,2.891,2.939,4.673.694,1.783,1.04,3.721,1.04,5.816s-.346,4.034-1.04,5.815c-.694,1.783-1.674,3.341-2.939,4.673-1.266,1.334-2.749,2.368-4.449,3.102-1.701.735-3.559,1.102-5.571,1.102ZM14,40.882c1.823,0,3.455-.448,4.898-1.346,1.442-.898,2.571-2.136,3.388-3.714.816-1.578,1.224-3.36,1.224-5.346s-.408-3.768-1.224-5.347c-.817-1.578-1.946-2.816-3.388-3.714-1.443-.898-3.075-1.346-4.898-1.346-1.851,0-3.49.448-4.918,1.346-1.429.898-2.551,2.13-3.367,3.694s-1.224,3.354-1.224,5.367.407,3.803,1.224,5.366c.817,1.565,1.938,2.796,3.367,3.694,1.428.898,3.067,1.346,4.918,1.346Z"/><rect class="cls-1" x="11.741" y="0" width="4.518" height="12.091" rx="2.259" ry="2.259"/><rect class="cls-1" x="28.992" y="7.25" width="4.518" height="12.091" rx="2.259" ry="2.259" transform="translate(18.555 -18.203) rotate(45)"/><rect class="cls-1" x="36.063" y="24.575" width="4.518" height="12.091" rx="2.259" ry="2.259" transform="translate(68.942 -7.701) rotate(90)"/></svg>